<svg xmlns="http://www.w3.org/2000/svg" viewBox="0 0 48 48">
  <path d="M44 19.8c-.7-.5-2.3-1-4.3-.8-.2-1.7-1.2-3.2-2.9-4.4l-.6-.4-.4.5c-.9 1.3-1.2 3.4-.4 4.8-.5.3-1.6.7-3 .7H3.3l-.1.6c-.2 2.5.3 5 1.5 7.2 1.4 2.4 3.5 3.8 6.4 4.6 1.4.4 3.1.6 4.9.6 1.7 0 3.5-.2 5.2-.7 1.4-.4 2.8-1 4-1.8 1-.7 1.9-1.6 2.7-2.6 1.3-1.6 2.1-3.4 2.7-5h.2c1.7 0 2.7-.7 3.3-1.3.4-.4.7-.8.9-1.3l.1-.4-.3-.3z" fill="#2496ED"/>
  <g fill="#2496ED">
    <rect x="7" y="17" width="4" height="3.5" rx="0.3" fill="#fff" stroke="#2496ED" stroke-width="0.5"/>
    <rect x="12.5" y="17" width="4" height="3.5" rx="0.3" fill="#fff" stroke="#2496ED" stroke-width="0.5"/>
    <rect x="18" y="17" width="4" height="3.5" rx="0.3" fill="#fff" stroke="#2496ED" stroke-width="0.5"/>
    <rect x="23.5" y="17" width="4" height="3.5" rx="0.3" fill="#fff" stroke="#2496ED" stroke-width="0.5"/>
    <rect x="7" y="12.5" width="4" height="3.5" rx="0.3" fill="#fff" stroke="#2496ED" stroke-width="0.5"/>
    <rect x="12.5" y="12.5" width="4" height="3.5" rx="0.3" fill="#fff" stroke="#2496ED" stroke-width="0.5"/>
    <rect x="18" y="12.5" width="4" height="3.5" rx="0.3" fill="#fff" stroke="#2496ED" stroke-width="0.5"/>
    <rect x="12.5" y="8" width="4" height="3.5" rx="0.3" fill="#fff" stroke="#2496ED" stroke-width="0.5"/>
    <rect x="18" y="8" width="4" height="3.5" rx="0.3" fill="#fff" stroke="#2496ED" stroke-width="0.5"/>
  </g>
</svg>
