<svg xmlns="http://www.w3.org/2000/svg" viewBox="0 0 48 48">
  <circle cx="24" cy="24" r="20" fill="#F46800"/>
  <path d="M34.5 21.5c-.3-1.5-1-2.8-2-3.8-.1-.1-.1-.2-.1-.3.2-.8.1-1.6-.3-2.3-.6-1-1.7-1.5-2.8-1.4-.3 0-.5.1-.8.2-.1 0-.2 0-.3-.1-1.3-.8-2.8-1.2-4.3-1.2-3.2 0-6.1 1.7-7.6 4.3-.8-.2-1.7-.1-2.5.3-1.3.7-2 2.1-1.8 3.5 0 .2 0 .3-.1.4-1.3 1.5-2 3.5-2 5.5 0 4.8 3.9 8.7 8.7 8.7h10.5c3.8 0 6.9-3.1 6.9-6.9 0-2.5-1.4-4.8-3.5-5.9z" fill="#fff"/>
  <circle cx="20" cy="26" r="3" fill="#F46800"/>
  <circle cx="28" cy="24" r="2.5" fill="#F46800" opacity="0.7"/>
  <circle cx="23" cy="20" r="2" fill="#F46800" opacity="0.5"/>
</svg>
