<svg xmlns="http://www.w3.org/2000/svg" viewBox="0 0 48 48">
  <path d="M24 4L6 14v20l18 10 18-10V14L24 4z" fill="#326CE5"/>
  <path d="M24 8l-14 8v16l14 8 14-8V16L24 8z" fill="#326CE5" stroke="#fff" stroke-width="0.5"/>
  <g fill="#fff">
    <circle cx="24" cy="16" r="2"/>
    <circle cx="17" cy="20" r="2"/>
    <circle cx="31" cy="20" r="2"/>
    <circle cx="17" cy="28" r="2"/>
    <circle cx="31" cy="28" r="2"/>
    <circle cx="24" cy="32" r="2"/>
    <circle cx="24" cy="24" r="3"/>
  </g>
  <g stroke="#fff" stroke-width="0.8" fill="none">
    <line x1="24" y1="16" x2="24" y2="21"/>
    <line x1="17" y1="20" x2="21" y2="23"/>
    <line x1="31" y1="20" x2="27" y2="23"/>
    <line x1="17" y1="28" x2="21" y2="25"/>
    <line x1="31" y1="28" x2="27" y2="25"/>
    <line x1="24" y1="32" x2="24" y2="27"/>
  </g>
</svg>
