<svg xmlns="http://www.w3.org/2000/svg" viewBox="0 0 48 48">
  <ellipse cx="24" cy="24" rx="12" ry="14" fill="#FFC107"/>
  <ellipse cx="24" cy="22" rx="10" ry="12" fill="#fff"/>
  <circle cx="20" cy="19" r="2.5" fill="#000"/>
  <circle cx="28" cy="19" r="2.5" fill="#000"/>
  <circle cx="20.5" cy="18.5" r="0.8" fill="#fff"/>
  <circle cx="28.5" cy="18.5" r="0.8" fill="#fff"/>
  <path d="M20 26c0 0 2 3 4 3s4-3 4-3" stroke="#000" stroke-width="1.5" fill="none" stroke-linecap="round"/>
  <path d="M14 36c-2-1-3-3-3-5 0-1 .5-2 1.5-2s2 1.5 2.5 3c.5 1.5 1 3 2 4" stroke="#FFC107" stroke-width="2.5" fill="none" stroke-linecap="round"/>
  <path d="M34 36c2-1 3-3 3-5 0-1-.5-2-1.5-2s-2 1.5-2.5 3c-.5 1.5-1 3-2 4" stroke="#FFC107" stroke-width="2.5" fill="none" stroke-linecap="round"/>
</svg>
