<svg xmlns="http://www.w3.org/2000/svg" viewBox="0 0 48 48">
  <rect x="4" y="4" width="40" height="40" rx="8" fill="#2D2D2D"/>
  <path d="M18 14c-2 0-4 2-4 6 0 4 1 8 1 12 0 2-.5 4-2 5" stroke="#B8860B" stroke-width="2.5" fill="none" stroke-linecap="round"/>
  <path d="M30 14c2 0 4 2 4 6 0 4-1 8-1 12 0 2 .5 4 2 5" stroke="#B8860B" stroke-width="2.5" fill="none" stroke-linecap="round"/>
  <ellipse cx="24" cy="20" rx="8" ry="6" fill="#B8860B"/>
  <circle cx="21" cy="18" r="1.5" fill="#fff"/>
  <circle cx="27" cy="18" r="1.5" fill="#fff"/>
  <circle cx="21" cy="18" r="0.7" fill="#000"/>
  <circle cx="27" cy="18" r="0.7" fill="#000"/>
  <path d="M22 22c0 0 1 1.5 2 1.5s2-1.5 2-1.5" stroke="#fff" stroke-width="0.8" fill="none"/>
  <text x="24" y="42" font-size="4.5" fill="#B8860B" text-anchor="middle" font-family="Arial" font-weight="bold">llama.cpp</text>
</svg>
