<svg xmlns="http://www.w3.org/2000/svg" viewBox="0 0 48 48" fill="none">
  <path d="M19.7 20.2c3.8-.5 7.2 2.4 7.5 6.2.3 3.9-2.5 7.3-6.3 7.8-3.8.5-7.2-2.4-7.5-6.2-.3-3.9 2.5-7.3 6.3-7.8z" fill="#76B900"/>
  <path d="M19.5 16v-3.6c7.8-.9 14.5 5.2 15 13 .6 7.8-5.3 14.5-13.1 15.1-7.8.6-14.5-5.2-15.1-13C5.8 20.7 11.7 14 19.5 16zm0 0v4.2m0-4.2c-5 .4-8.8 4.8-8.4 9.8.4 5 4.7 8.8 9.7 8.4 5-.4 8.8-4.8 8.4-9.8-.4-5-4.8-8.8-9.7-8.4z" stroke="#76B900" stroke-width="1.5" fill="none"/>
  <rect x="3" y="22" width="4" height="4" rx="1" fill="#76B900"/>
  <rect x="41" y="22" width="4" height="4" rx="1" fill="#76B900"/>
  <text x="24" y="44" font-size="5" fill="#76B900" text-anchor="middle" font-family="Arial" font-weight="bold">NVIDIA</text>
</svg>
