<svg xmlns="http://www.w3.org/2000/svg" viewBox="0 0 48 48">
  <circle cx="24" cy="24" r="20" fill="#000"/>
  <path d="M35.5 21.8c.6-2-.1-4.2-1.8-5.5-2.3-1.7-5.4-1.4-7.3.6-.9-.7-2.1-1-3.3-.8-2.1.3-3.7 2-3.9 4.1-1.1.1-2.1.7-2.8 1.5-1.5 1.8-1.4 4.5.2 6.2-.6 2 .1 4.2 1.8 5.5 2.3 1.7 5.4 1.4 7.3-.6.9.7 2.1 1 3.3.8 2.1-.3 3.7-2 3.9-4.1 1.1-.1 2.1-.7 2.8-1.5 1.5-1.8 1.4-4.5-.2-6.2z" stroke="#fff" stroke-width="1.8" fill="none"/>
  <path d="M24 18v12m-5-9l5-3 5 3m-10 6l5 3 5-3" stroke="#fff" stroke-width="1.2" fill="none" stroke-linecap="round"/>
</svg>
