<svg xmlns="http://www.w3.org/2000/svg" viewBox="0 0 48 48">
  <circle cx="24" cy="24" r="20" fill="#E6522C"/>
  <g fill="#fff">
    <path d="M24 8c-1.5 0-2.7.3-2.7.3v5.4s1.2-.3 2.7-.3 2.7.3 2.7.3V8.3S25.5 8 24 8z"/>
    <path d="M16 14.5c-1.2.8-2 1.6-2 1.6l3.8 3.8s.8-.8 2-1.6c1.2-.8 2.2-1.2 2.2-1.2l-2.2-4.8s-1 .4-2.2 1.2l-1.6 1z"/>
    <rect x="21" y="32" width="6" height="3" rx="1.5"/>
    <rect x="20" y="36" width="8" height="3" rx="1.5"/>
    <rect x="21" y="28" width="6" height="3" rx="1.5"/>
    <path d="M24 12a10 10 0 0 1 10 10c0 4-2.3 7.5-5.7 9.2H19.7C16.3 29.5 14 26 14 22a10 10 0 0 1 10-10z" fill="none" stroke="#fff" stroke-width="1.5"/>
  </g>
</svg>
