<svg xmlns="http://www.w3.org/2000/svg" viewBox="0 0 48 48">
  <path d="M24 6c-4 0-7.5.5-10 1.5C11.5 8.5 10 10.5 10 13v4h14v2H10h-3c-3 0-5.5 1.8-6.3 5.2C-.2 27.6-.2 30.4.7 34c.7 2.6 2.3 5.2 5.3 5.2h3v-5c0-3.4 2.9-6.4 6.3-6.4h12.4c2.8 0 5.3-2.5 5.3-5.3V13c0-2.7-2.4-4.8-5.3-5.5C25.9 6.8 24 6 24 6zm-7.5 4c1 0 1.8.8 1.8 1.8s-.8 1.7-1.8 1.7-1.8-.8-1.8-1.7.8-1.8 1.8-1.8z" fill="#3776AB"/>
  <path d="M24 42c4 0 7.5-.5 10-1.5 2.5-1 4-3 4-5.5v-4H24v-2h14 3c3 0 5.5-1.8 6.3-5.2.9-3.4.9-6.2 0-9.8-.7-2.6-2.3-5.2-5.3-5.2h-3v5c0 3.4-2.9 6.4-6.3 6.4H20.3c-2.8 0-5.3 2.5-5.3 5.3v9.5c0 2.7 2.4 4.8 5.3 5.5 1.8.7 3.7.5 3.7.5zm7.5-4c-1 0-1.8-.8-1.8-1.8s.8-1.7 1.8-1.7 1.8.8 1.8 1.7-.8 1.8-1.8 1.8z" fill="#FFD43B"/>
</svg>
